<svg xmlns="http://www.w3.org/2000/svg" xmlns:xlink="http://www.w3.org/1999/xlink" version="1.1" x="0px" y="0px" viewBox="0 0 100 100" style="enable-background:new 0 0 100 100;" xml:space="preserve"><path d="M92.589,47.965V32.767c0-1.332-1.079-2.411-2.411-2.411s-2.41,1.08-2.41,2.411v0.081L52.64,9.526V7.282  c0-1.331-1.079-2.411-2.41-2.411c-1.332,0-2.411,1.08-2.411,2.411v0.134l-0.164,0.248l0.164,0.109v1.161L11.83,32.827v-0.06  c0-1.332-1.079-2.411-2.411-2.411c-1.331,0-2.41,1.08-2.41,2.411v15.458L5,49.526v5.51v5.51l45,28.47l45-28.47v-5.51v-5.51  L92.589,47.965z M11.829,36.202l1.738,1.1l-1.738,1.154V36.202z M11.829,39.901l2.854-1.895l4.097,2.592l-4.104,2.658l-2.847-1.801  V39.901z M50.229,54.292c-1.332,0-2.411,1.08-2.411,2.411v0.846L24.268,42.65l25.73-16.541l25.615,16.467L52.639,57.473v-0.77  C52.639,55.371,51.56,54.292,50.229,54.292z M52.639,22.08v-5.478l31.144,20.676L79.94,39.77L52.639,22.08z M47.818,21.782  L19.889,39.878l-4.109-2.601l32.038-21.27V21.782z M23.152,43.367l24.666,15.607v5.251L19.034,46.014L23.152,43.367z M52.639,58.78  l24.064-15.504l4.168,2.679l-28.232,18.41V58.78z M81.039,40.482l3.843-2.476l2.886,1.916v1.535l-2.604,1.697L81.039,40.482z   M85.997,37.301l1.771-1.12v2.295L85.997,37.301z M87.768,34.293v0.463l-2.868,1.815L52.64,15.154v-4.183L87.768,34.293z   M47.818,10.379v2.665l-0.164,0.248l0.164,0.109v1.162l-33.153,22.01l-2.836-1.794v-0.506L47.818,10.379z M11.829,42.88l1.734,1.097  l-1.734,1.124V42.88z M13.736,49.419l4.182-2.688l29.9,18.92v5.663L13.736,49.419z M52.639,71.02v-5.933l29.226-18.493l4.396,2.826  L52.639,71.02z M86.22,43.838l1.548-0.979v1.982L86.22,43.838z"></path></svg>